<?xml version="1.0" encoding="UTF-8" standalone="no" ?>
<!DOCTYPE svg PUBLIC "-//W3C//DTD SVG 1.1//EN" "http://www.w3.org/Graphics/SVG/1.1/DTD/svg11.dtd">
<svg xmlns="http://www.w3.org/2000/svg" xmlns:xlink="http://www.w3.org/1999/xlink" version="1.1" width="1080" height="1080" viewBox="0 0 1080 1080" xml:space="preserve">
<desc>Created with Fabric.js 5.2.4</desc>
<defs>
</defs>
<g transform="matrix(1 0 0 1 540 540)" id="ec46ba88-b445-451f-8fc7-624de77a708b"  >
<rect style="stroke: none; stroke-width: 1; stroke-dasharray: none; stroke-linecap: butt; stroke-dashoffset: 0; stroke-linejoin: miter; stroke-miterlimit: 4; fill: rgb(255,255,255); fill-rule: nonzero; opacity: 1; visibility: hidden;" vector-effect="non-scaling-stroke"  x="-540" y="-540" rx="0" ry="0" width="1080" height="1080" />
</g>
<g transform="matrix(1 0 0 1 540 540)" id="969113b9-5519-423e-8169-301563fec7fd"  >
</g>
<g transform="matrix(45 0 0 45 540 540)"  >
<path style="stroke: rgb(23,133,235); stroke-width: 1.5; stroke-dasharray: none; stroke-linecap: round; stroke-dashoffset: 0; stroke-linejoin: round; stroke-miterlimit: 4; fill: none; fill-rule: nonzero; opacity: 1;"  transform=" translate(-12, -12)" d="M 20.25 7.5 L 19.625 18.131999999999998 C 19.555086571204324 19.321655150935612 18.569707619651094 20.250463615283515 17.378 20.249999999999996 L 6.622 20.249999999999996 C 5.430292380348907 20.250463615283515 4.444913428795678 19.321655150935612 4.375 18.131999999999998 L 3.75 7.5 M 10 11.25 L 14 11.25 M 3.375 7.5 L 20.625 7.5 C 21.246 7.5 21.75 6.996 21.75 6.375 L 21.75 4.875 C 21.75 4.254 21.246 3.75 20.625 3.75 L 3.375 3.75 C 2.754 3.75 2.25 4.254 2.25 4.875 L 2.25 6.375 C 2.25 6.996 2.754 7.5 3.375 7.5 Z" stroke-linecap="round" />
</g>
<g transform="matrix(45 0 0 45 540 540)"  >
<path style="stroke: rgb(23,133,235); stroke-width: 1.5; stroke-dasharray: none; stroke-linecap: round; stroke-dashoffset: 0; stroke-linejoin: round; stroke-miterlimit: 4; fill: none; fill-rule: nonzero; opacity: 1;"  transform=" translate(-12, -12)" d="M 20.25 7.5 L 19.625 18.131999999999998 C 19.555086571204324 19.321655150935612 18.569707619651094 20.250463615283515 17.378 20.249999999999996 L 6.622 20.249999999999996 C 5.430292380348907 20.250463615283515 4.444913428795678 19.321655150935612 4.375 18.131999999999998 L 3.75 7.5 M 10 11.25 L 14 11.25 M 3.375 7.5 L 20.625 7.5 C 21.246 7.5 21.75 6.996 21.75 6.375 L 21.75 4.875 C 21.75 4.254 21.246 3.75 20.625 3.75 L 3.375 3.75 C 2.754 3.75 2.25 4.254 2.25 4.875 L 2.25 6.375 C 2.25 6.996 2.754 7.5 3.375 7.5 Z" stroke-linecap="round" />
</g>
<g transform="matrix(NaN NaN NaN NaN 0 0)"  >
<g style=""   >
</g>
</g>
<g transform="matrix(NaN NaN NaN NaN 0 0)"  >
<g style=""   >
</g>
</g>
</svg>