<?xml version="1.0" encoding="UTF-8" standalone="no" ?>
<!DOCTYPE svg PUBLIC "-//W3C//DTD SVG 1.1//EN" "http://www.w3.org/Graphics/SVG/1.1/DTD/svg11.dtd">
<svg xmlns="http://www.w3.org/2000/svg" xmlns:xlink="http://www.w3.org/1999/xlink" version="1.1" width="1080" height="1080" viewBox="0 0 1080 1080" xml:space="preserve">
<desc>Created with Fabric.js 5.2.4</desc>
<defs>
</defs>
<g transform="matrix(1 0 0 1 540 540)" id="0d160c5a-3b8d-48db-9010-174144c48d45"  >
<rect style="stroke: none; stroke-width: 1; stroke-dasharray: none; stroke-linecap: butt; stroke-dashoffset: 0; stroke-linejoin: miter; stroke-miterlimit: 4; fill: rgb(255,255,255); fill-rule: nonzero; opacity: 1; visibility: hidden;" vector-effect="non-scaling-stroke"  x="-540" y="-540" rx="0" ry="0" width="1080" height="1080" />
</g>
<g transform="matrix(1 0 0 1 540 540)" id="762033d3-27fc-4bfb-8f9b-c1098ec48a3f"  >
</g>
<g transform="matrix(45 0 0 45 540 540)"  >
<path style="stroke: rgb(23,133,235); stroke-width: 1; stroke-dasharray: none; stroke-linecap: butt; stroke-dashoffset: 0; stroke-linejoin: miter; stroke-miterlimit: 4; fill: rgb(23,133,235); fill-rule: evenodd; opacity: 1;"  transform=" translate(-12.02, -11.99)" d="M 12.53 16.28 C 12.237182453226042 16.572453378057517 11.762817546773956 16.572453378057517 11.469999999999999 16.28 L 3.969999999999999 8.780000000000001 C 3.694641139570877 8.48449024551552 3.702766124082644 8.02399027800526 3.988378201043951 7.738378201043952 C 4.273990278005257 7.452766124082646 4.734490245515518 7.444641139570878 5.029999999999999 7.720000000000001 L 12 14.69 L 18.97 7.72 C 19.156970580463984 7.519346822387949 19.438555542158955 7.4367508184924676 19.70428890863855 7.504614458125724 C 19.970022275118147 7.57247809775898 20.17752190224102 7.779977724881851 20.245385541874274 8.045711091361447 C 20.31324918150753 8.311444457841045 20.230653177612048 8.593029419536016 20.029999999999998 8.78 L 12.529999999999998 16.28 Z" stroke-linecap="round" />
</g>
<g transform="matrix(NaN NaN NaN NaN 0 0)"  >
<g style=""   >
</g>
</g>
<g transform="matrix(NaN NaN NaN NaN 0 0)"  >
<g style=""   >
</g>
</g>
</svg>