<?xml version="1.0" encoding="UTF-8" standalone="no" ?>
<!DOCTYPE svg PUBLIC "-//W3C//DTD SVG 1.1//EN" "http://www.w3.org/Graphics/SVG/1.1/DTD/svg11.dtd">
<svg xmlns="http://www.w3.org/2000/svg" xmlns:xlink="http://www.w3.org/1999/xlink" version="1.1" width="1080" height="1080" viewBox="0 0 1080 1080" xml:space="preserve">
<desc>Created with Fabric.js 5.2.4</desc>
<defs>
</defs>
<g transform="matrix(1 0 0 1 540 540)" id="25043536-fdc4-4131-9e35-9a64977f6647"  >
<rect style="stroke: none; stroke-width: 1; stroke-dasharray: none; stroke-linecap: butt; stroke-dashoffset: 0; stroke-linejoin: miter; stroke-miterlimit: 4; fill: rgb(255,255,255); fill-rule: nonzero; opacity: 1; visibility: hidden;" vector-effect="non-scaling-stroke"  x="-540" y="-540" rx="0" ry="0" width="1080" height="1080" />
</g>
<g transform="matrix(1 0 0 1 540 540)" id="d741b6be-2580-43e6-86c6-c3ffac01c939"  >
</g>
<g transform="matrix(45 0 0 45 540 540)"  >
<path style="stroke: none; stroke-width: 1; stroke-dasharray: none; stroke-linecap: butt; stroke-dashoffset: 0; stroke-linejoin: miter; stroke-miterlimit: 4; fill: rgb(23,133,235); fill-rule: nonzero; opacity: 1;"  transform=" translate(-12, -12)" d="M 12 2.25 C 12.414213562373096 2.25 12.75 2.5857864376269046 12.75 3 L 12.75 5.25 C 12.75 5.664213562373095 12.414213562373096 6 12 6 C 11.585786437626904 6 11.25 5.664213562373095 11.25 5.25 L 11.25 3 C 11.25 2.585786437626905 11.585786437626904 2.25 12 2.25 Z M 7.5 12 C 7.5 9.514718625761429 9.514718625761429 7.5 12 7.5 C 14.485281374238571 7.5 16.5 9.514718625761429 16.5 11.999999999999998 C 16.5 14.485281374238571 14.485281374238571 16.5 12 16.5 C 9.514718625761429 16.5 7.5 14.485281374238571 7.5 12 Z M 18.894 6.166 C 19.16935886042911 5.870490245515518 19.161233875917336 5.409990278005267 18.875621798956036 5.124378201043965 C 18.590009721994733 4.838766124082663 18.12950975448448 4.83064113957089 17.834 5.106 L 16.243 6.696 C 16.047945828946308 6.884214362340417 15.969623914833662 7.16302904855514 16.038137126216117 7.425282200495619 C 16.106650337598573 7.687535352436098 16.311336517297654 7.892414632304705 16.573524948029156 7.961175105159426 C 16.83571337876066 8.029935578014147 17.11460179476546 7.9518766073726095 17.302999999999997 7.757 L 18.894 6.167 Z M 21.75 12 C 21.75 12.414213562373096 21.414213562373096 12.75 21 12.75 L 18.75 12.75 C 18.335786437626904 12.75 18 12.414213562373096 18 12 C 18 11.585786437626904 18.335786437626904 11.25 18.75 11.25 L 21 11.25 C 21.414213562373096 11.25 21.75 11.585786437626904 21.75 12 Z M 17.834 18.894 C 18.129509754484484 19.169358860429096 18.590009721994726 19.16123387591732 18.875621798956022 18.875621798956022 C 19.16123387591732 18.590009721994726 19.169358860429096 18.129509754484484 18.894 17.834 L 17.304 16.243 C 17.11578563765958 16.047945828946308 16.836970951444858 15.969623914833662 16.574717799504377 16.038137126216117 C 16.3124646475639 16.106650337598577 16.107585367695293 16.311336517297654 16.038824894840573 16.573524948029156 C 15.970064421985851 16.835713378760662 16.04812339262739 17.114601794765463 16.243 17.302999999999997 L 17.833 18.894 Z M 12 18 C 12.414213562373096 18 12.75 18.335786437626904 12.75 18.75 L 12.75 21 C 12.75 21.414213562373096 12.414213562373096 21.75 12 21.75 C 11.585786437626904 21.75 11.25 21.414213562373096 11.25 21 L 11.25 18.75 C 11.25 18.335786437626904 11.585786437626904 18 12 18 Z M 7.758 17.303 C 8.042093556908513 17.00858233412464 8.037809606216655 16.540802278654148 7.748371570946903 16.25163704077862 C 7.458933535677151 15.96247180290309 6.991149648615098 15.958628947893708 6.697 16.243000000000002 L 5.106 17.833000000000002 C 4.821628947893682 18.127149648615095 4.8254718029030546 18.594933535677168 5.114637040778594 18.88437157094693 C 5.403802278654133 19.173809606216693 5.8715823341246445 19.17809355690854 6.166 18.894000000000002 L 7.757000000000001 17.304000000000002 Z M 6 12 C 6 12.414213562373096 5.664213562373095 12.75 5.25 12.75 L 3 12.75 C 2.585786437626905 12.75 2.25 12.414213562373096 2.25 12 C 2.25 11.585786437626904 2.585786437626905 11.25 3 11.25 L 5.25 11.25 C 5.664213562373095 11.25 6 11.585786437626904 6 12 Z M 6.697 7.757 C 6.992509754484482 8.032358860429117 7.4530097219947375 8.024233875917346 7.738621798956043 7.738621798956041 C 8.024233875917346 7.453009721994737 8.032358860429117 6.99250975448448 7.757 6.696999999999999 L 6.167 5.105999999999999 C 5.872850351384904 4.821628947893693 5.40506646432284 4.82547180290307 5.115628429053084 5.114637040778605 C 4.826190393783326 5.4038022786541395 4.821906443091473 5.871582334124642 5.106 6.165999999999999 L 6.696 7.756999999999999 Z" stroke-linecap="round" />
</g>
<g transform="matrix(NaN NaN NaN NaN 0 0)"  >
<g style=""   >
</g>
</g>
<g transform="matrix(NaN NaN NaN NaN 0 0)"  >
<g style=""   >
</g>
</g>
</svg>