<?xml version="1.0" encoding="UTF-8" standalone="no" ?>
<!DOCTYPE svg PUBLIC "-//W3C//DTD SVG 1.1//EN" "http://www.w3.org/Graphics/SVG/1.1/DTD/svg11.dtd">
<svg xmlns="http://www.w3.org/2000/svg" xmlns:xlink="http://www.w3.org/1999/xlink" version="1.1" width="1080" height="1080" viewBox="0 0 1080 1080" xml:space="preserve">
<desc>Created with Fabric.js 5.2.4</desc>
<defs>
</defs>
<g transform="matrix(1 0 0 1 540 540)" id="733ff394-2e06-42f8-9eae-7457c45ac0a6"  >
<rect style="stroke: none; stroke-width: 1; stroke-dasharray: none; stroke-linecap: butt; stroke-dashoffset: 0; stroke-linejoin: miter; stroke-miterlimit: 4; fill: rgb(255,255,255); fill-rule: nonzero; opacity: 1; visibility: hidden;" vector-effect="non-scaling-stroke"  x="-540" y="-540" rx="0" ry="0" width="1080" height="1080" />
</g>
<g transform="matrix(1 0 0 1 540 540)" id="aaf4da52-0cf2-45a3-baf9-ba774c4a18e9"  >
</g>
<g transform="matrix(45 0 0 45 540 540)"  >
<path style="stroke: rgb(23,133,235); stroke-width: 1.5; stroke-dasharray: none; stroke-linecap: round; stroke-dashoffset: 0; stroke-linejoin: round; stroke-miterlimit: 4; fill: none; fill-rule: nonzero; opacity: 1;"  transform=" translate(-12, -12)" d="M 21.75 6.75 L 21.75 17.25 C 21.75 18.492640687119284 20.742640687119284 19.5 19.5 19.5 L 4.5 19.5 C 3.257359312880715 19.5 2.25 18.492640687119284 2.25 17.25 L 2.25 6.75 M 21.75 6.75 C 21.75 5.507359312880714 20.742640687119284 4.5 19.5 4.5 L 4.5 4.5 C 3.257359312880715 4.5 2.25 5.507359312880714 2.25 6.75 M 21.75 6.75 L 21.75 6.993 C 21.75008661027724 7.7740990430688 21.345062623376112 8.499356948585211 20.68 8.908999999999999 L 13.18 13.524000000000001 C 12.456453516641512 13.969665992431253 11.54354648335849 13.969665992431253 10.82 13.524000000000001 L 3.32 8.91 C 2.654937376623889 8.500356948585212 2.24991338972276 7.775099043068798 2.25 6.994 L 2.25 6.75" stroke-linecap="round" />
</g>
<g transform="matrix(NaN NaN NaN NaN 0 0)"  >
<g style=""   >
</g>
</g>
</svg>