<?xml version="1.0" encoding="UTF-8" standalone="no" ?>
<!DOCTYPE svg PUBLIC "-//W3C//DTD SVG 1.1//EN" "http://www.w3.org/Graphics/SVG/1.1/DTD/svg11.dtd">
<svg xmlns="http://www.w3.org/2000/svg" xmlns:xlink="http://www.w3.org/1999/xlink" version="1.1" width="1080" height="1080" viewBox="0 0 1080 1080" xml:space="preserve">
<desc>Created with Fabric.js 5.2.4</desc>
<defs>
</defs>
<g transform="matrix(1 0 0 1 540 540)" id="6bf659f0-a251-44f6-a929-81082c357f64"  >
<rect style="stroke: none; stroke-width: 1; stroke-dasharray: none; stroke-linecap: butt; stroke-dashoffset: 0; stroke-linejoin: miter; stroke-miterlimit: 4; fill: rgb(255,255,255); fill-rule: nonzero; opacity: 1; visibility: hidden;" vector-effect="non-scaling-stroke"  x="-540" y="-540" rx="0" ry="0" width="1080" height="1080" />
</g>
<g transform="matrix(1 0 0 1 540 540)" id="3738284e-6160-4b92-807e-7cac609b2c0e"  >
</g>
<g transform="matrix(45 0 0 45 540 540)"  >
<path style="stroke: none; stroke-width: 1; stroke-dasharray: none; stroke-linecap: butt; stroke-dashoffset: 0; stroke-linejoin: miter; stroke-miterlimit: 4; fill: rgb(23,133,235); fill-rule: evenodd; opacity: 1;"  transform=" translate(-12, -12)" d="M 12 2.25 C 12.414213562373096 2.25 12.75 2.5857864376269046 12.75 3 L 12.75 3.7560000000000002 C 15.825251128562883 3.8019948991111043 18.889380628655758 4.1367992588240465 21.90200000000002 4.756 C 22.279995474441026 4.832741693919207 22.538153531109206 5.183671611137233 22.49887896298356 5.567373806312123 C 22.459604394857916 5.951076001487013 22.135704325073007 6.242428251889638 21.75 6.2410000000000005 L 19.832 6.2410000000000005 L 22.306 16.365000000000002 C 22.387549234192782 16.69778699308376 22.233199869101995 17.043529570887127 21.931 17.205000000000002 C 20.95252762211565 17.72846618851921 19.859694787517086 18.001588509646485 18.75 18 C 17.640305212482914 18.001588509646485 16.54747237788435 17.72846618851921 15.568999999999999 17.205 C 15.266800130898005 17.043529570887124 15.112450765807216 16.697786993083756 15.193999999999999 16.365 L 17.668 6.240999999999998 L 12.75 6.240999999999998 L 12.75 19.520999999999997 C 14.043 19.596999999999998 15.283999999999999 19.863999999999997 16.447 20.296999999999997 C 16.78737463806249 20.423526663654208 16.988211340621493 20.775723967227503 16.92377206784592 21.133091384566846 C 16.859332795070344 21.49045880190619 16.548130532909255 21.75032698727118 16.185 21.749999999999996 L 7.8149999999999995 21.749999999999996 C 7.4518694670907415 21.75032698727118 7.1406672049296525 21.49045880190619 7.0762279321540795 21.133091384566846 C 7.011788659378506 20.775723967227503 7.2126253619375085 20.423526663654208 7.552999999999999 20.296999999999997 C 8.715 19.863999999999997 9.956999999999999 19.596999999999998 11.25 19.522 L 11.25 6.24 L 6.332 6.24 L 8.806000000000001 16.364 C 8.887549234192784 16.69678699308376 8.733199869101995 17.042529570887126 8.431000000000001 17.204 C 7.452617643708555 17.727813822575477 6.359779849803377 18.001280934788156 5.25 18 C 4.140305212482915 18.001588509646485 3.047472377884351 17.72846618851921 2.0690000000000004 17.205 C 1.7668001308980066 17.043529570887124 1.612450765807217 16.697786993083756 1.6939999999999997 16.365 L 4.168 6.241 L 2.25 6.241 C 1.8642956749269914 6.242428251889637 1.540395605142085 5.951076001487012 1.5011210370164396 5.567373806312122 C 1.4618464688907942 5.183671611137232 1.7200045255589735 4.832741693919207 2.097999999999999 4.755999999999999 C 5.110618455410947 4.136793426566421 8.174748506263057 3.801989006674364 11.249999999999964 3.7559999999999993 L 11.25 3 C 11.25 2.585786437626905 11.585786437626904 2.25 12 2.25 Z M 16.878 15.793 L 18.75 8.131 L 20.622 15.793 L 16.878 15.793 Z M 7.122 15.793 L 5.25 8.131 L 3.378 15.793 L 7.122 15.793 Z" stroke-linecap="round" />
</g>
<g transform="matrix(NaN NaN NaN NaN 0 0)"  >
<g style=""   >
</g>
</g>
<g transform="matrix(NaN NaN NaN NaN 0 0)"  >
<g style=""   >
</g>
</g>
<g transform="matrix(NaN NaN NaN NaN 0 0)"  >
<g style=""   >
</g>
</g>
</svg>