<?xml version="1.0" encoding="UTF-8" standalone="no" ?>
<!DOCTYPE svg PUBLIC "-//W3C//DTD SVG 1.1//EN" "http://www.w3.org/Graphics/SVG/1.1/DTD/svg11.dtd">
<svg xmlns="http://www.w3.org/2000/svg" xmlns:xlink="http://www.w3.org/1999/xlink" version="1.1" width="1080" height="1080" viewBox="0 0 1080 1080" xml:space="preserve">
<desc>Created with Fabric.js 5.2.4</desc>
<defs>
</defs>
<g transform="matrix(1 0 0 1 540 540)" id="32479987-a592-4615-a81d-617da28b32bd"  >
<rect style="stroke: none; stroke-width: 1; stroke-dasharray: none; stroke-linecap: butt; stroke-dashoffset: 0; stroke-linejoin: miter; stroke-miterlimit: 4; fill: rgb(255,255,255); fill-rule: nonzero; opacity: 1; visibility: hidden;" vector-effect="non-scaling-stroke"  x="-540" y="-540" rx="0" ry="0" width="1080" height="1080" />
</g>
<g transform="matrix(1 0 0 1 540 540)" id="f492afa9-34bf-4c23-a1fd-5110a6fa13d6"  >
</g>
<g transform="matrix(45 0 0 45 540 540)"  >
<g style=""   >
		<g transform="matrix(1 0 0 1 -4.5 0)"  >
<path style="stroke: none; stroke-width: 1; stroke-dasharray: none; stroke-linecap: butt; stroke-dashoffset: 0; stroke-linejoin: miter; stroke-miterlimit: 4; fill: rgb(23,133,235); fill-rule: nonzero; opacity: 1;" vector-effect="non-scaling-stroke"  transform=" translate(-7.5, -12)" d="M 3.375 4.5 C 2.339 4.5 1.5 5.34 1.5 6.375 L 1.5 13.5 L 13.5 13.5 L 13.5 6.375 C 13.5 5.339 12.66 4.5 11.625 4.5 L 3.375 4.5 Z M 13.5 15 L 1.5 15 L 1.5 17.625 C 1.5 18.66 2.34 19.5 3.375 19.5 L 3.75 19.5 C 3.75 17.84314575050762 5.093145750507619 16.5 6.75 16.5 C 8.40685424949238 16.5 9.75 17.84314575050762 9.75 19.5 L 12.75 19.5 C 13.164213562373096 19.5 13.5 19.164213562373096 13.5 18.75 L 13.5 15 Z" stroke-linecap="round" />
</g>
		<g transform="matrix(1 0 0 1 1.86 1.87)"  >
<path style="stroke: none; stroke-width: 1; stroke-dasharray: none; stroke-linecap: butt; stroke-dashoffset: 0; stroke-linejoin: miter; stroke-miterlimit: 4; fill: rgb(23,133,235); fill-rule: nonzero; opacity: 1;" vector-effect="non-scaling-stroke"  transform=" translate(-13.86, -13.87)" d="M 8.25 19.5 C 8.25 18.67157287525381 7.57842712474619 18 6.75 18 C 5.92157287525381 18 5.25 18.67157287525381 5.25 19.5 C 5.25 20.32842712474619 5.92157287525381 21 6.75 21 C 7.57842712474619 21 8.25 20.32842712474619 8.25 19.5 Z M 15.75 6.75 C 15.335786437626904 6.75 15 7.085786437626905 15 7.5 L 15 18.75 C 15 18.837 15.015 18.92 15.042 18.998 C 15.300339228923526 17.466574316564145 16.68476030019124 16.385496735241812 18.233134618177584 16.506081777797313 C 19.781508936163924 16.62666682035281 20.981867803551253 17.909043141442837 21 19.461999999999996 C 21.853 19.287 22.522 18.527 22.464 17.579 C 22.240299317102828 13.917363532725407 20.94220339212956 10.4029044689714 18.731999999999992 7.474999999999987 C 18.3829474266447 7.01601063276923 17.83863069695833 6.7475551028218685 17.262 6.750000000000002 L 15.75 6.750000000000002 Z" stroke-linecap="round" />
</g>
		<g transform="matrix(1 0 0 1 6 7.5)"  >
<path style="stroke: none; stroke-width: 1; stroke-dasharray: none; stroke-linecap: butt; stroke-dashoffset: 0; stroke-linejoin: miter; stroke-miterlimit: 4; fill: rgb(23,133,235); fill-rule: nonzero; opacity: 1;" vector-effect="non-scaling-stroke"  transform=" translate(-18, -19.5)" d="M 19.5 19.5 C 19.5 18.67157287525381 18.82842712474619 18 18 18 C 17.17157287525381 18 16.5 18.67157287525381 16.5 19.5 C 16.5 20.32842712474619 17.17157287525381 21 18 21 C 18.82842712474619 21 19.5 20.32842712474619 19.5 19.5 Z" stroke-linecap="round" />
</g>
</g>
</g>
<g transform="matrix(NaN NaN NaN NaN 0 0)"  >
<g style=""   >
</g>
</g>
</svg>